<svg width="220" height="36" viewBox="0 0 220 36" fill="none" xmlns="http://www.w3.org/2000/svg">
<path d="M49 32V4H60.12C61.8267 4 63.3467 4.34667 64.68 5.04C66.04 5.70667 67.0933 6.66667 67.84 7.92C68.6133 9.14667 69 10.6267 69 12.36V12.88C69 14.6133 68.6 16.1067 67.8 17.36C67.0267 18.6133 65.9733 19.5733 64.64 20.24C63.3067 20.9067 61.8 21.24 60.12 21.24H53.32V32H49ZM53.32 17.32H59.68C61.2 17.32 62.4133 16.92 63.32 16.12C64.2267 15.32 64.68 14.2267 64.68 12.84V12.44C64.68 11.0267 64.2267 9.92 63.32 9.12C62.4133 8.32 61.2 7.92 59.68 7.92H53.32V17.32Z" fill="black"/>
<path d="M81.9147 32.56C79.9414 32.56 78.1814 32.16 76.6347 31.36C75.1147 30.5333 73.9147 29.36 73.0347 27.84C72.1547 26.32 71.7147 24.52 71.7147 22.44V21.84C71.7147 19.76 72.1547 17.9733 73.0347 16.48C73.9147 14.96 75.1147 13.7867 76.6347 12.96C78.1814 12.1333 79.9414 11.72 81.9147 11.72C83.888 11.72 85.648 12.1333 87.1947 12.96C88.7414 13.7867 89.9547 14.96 90.8347 16.48C91.7147 17.9733 92.1547 19.76 92.1547 21.84V22.44C92.1547 24.52 91.7147 26.32 90.8347 27.84C89.9547 29.36 88.7414 30.5333 87.1947 31.36C85.648 32.16 83.888 32.56 81.9147 32.56ZM81.9147 28.88C83.728 28.88 85.1947 28.3067 86.3147 27.16C87.4614 25.9867 88.0347 24.3733 88.0347 22.32V21.96C88.0347 19.9067 87.4747 18.3067 86.3547 17.16C85.2347 15.9867 83.7547 15.4 81.9147 15.4C80.128 15.4 78.6614 15.9867 77.5147 17.16C76.3947 18.3067 75.8347 19.9067 75.8347 21.96V22.32C75.8347 24.3733 76.3947 25.9867 77.5147 27.16C78.6614 28.3067 80.128 28.88 81.9147 28.88Z" fill="black"/>
<path d="M105.364 32.56C102.857 32.56 100.777 32 99.1241 30.88C97.4707 29.76 96.4574 28.0667 96.0841 25.8L99.9241 24.88C100.137 25.9733 100.497 26.84 101.004 27.48C101.511 28.12 102.137 28.5733 102.884 28.84C103.657 29.1067 104.484 29.24 105.364 29.24C106.671 29.24 107.671 28.9867 108.364 28.48C109.084 27.9733 109.444 27.32 109.444 26.52C109.444 25.72 109.111 25.1333 108.444 24.76C107.777 24.3867 106.791 24.08 105.484 23.84L104.124 23.6C102.791 23.36 101.577 23.0133 100.484 22.56C99.3907 22.1067 98.5241 21.48 97.8841 20.68C97.2441 19.88 96.9241 18.8533 96.9241 17.6C96.9241 15.7333 97.6174 14.2933 99.0041 13.28C100.391 12.24 102.231 11.72 104.524 11.72C106.737 11.72 108.551 12.2267 109.964 13.24C111.404 14.2267 112.337 15.5733 112.764 17.28L108.924 18.36C108.684 17.16 108.177 16.32 107.404 15.84C106.631 15.3333 105.671 15.08 104.524 15.08C103.404 15.08 102.524 15.2933 101.884 15.72C101.244 16.12 100.924 16.6933 100.924 17.44C100.924 18.24 101.231 18.8267 101.844 19.2C102.484 19.5733 103.337 19.8533 104.404 20.04L105.804 20.28C107.217 20.52 108.511 20.8533 109.684 21.28C110.857 21.7067 111.777 22.32 112.444 23.12C113.137 23.92 113.484 24.9867 113.484 26.32C113.484 28.2933 112.751 29.8267 111.284 30.92C109.817 32.0133 107.844 32.56 105.364 32.56Z" fill="black"/>
<path d="M118.3 32V12.28H122.42V32H118.3ZM120.38 9.6C119.58 9.6 118.9 9.34667 118.34 8.84C117.806 8.30667 117.54 7.62667 117.54 6.8C117.54 5.97333 117.806 5.30667 118.34 4.8C118.9 4.26667 119.58 4 120.38 4C121.206 4 121.886 4.26667 122.42 4.8C122.953 5.30667 123.22 5.97333 123.22 6.8C123.22 7.62667 122.953 8.30667 122.42 8.84C121.886 9.34667 121.206 9.6 120.38 9.6Z" fill="black"/>
<path d="M135.934 32C134.734 32 133.774 31.64 133.054 30.92C132.361 30.2 132.014 29.24 132.014 28.04V15.76H126.574V12.28H132.014V5.76H136.134V12.28H142.014V15.76H136.134V27.32C136.134 28.12 136.507 28.52 137.254 28.52H141.374V32H135.934Z" fill="black"/>
<path d="M146.854 32V12.28H150.974V32H146.854ZM148.934 9.6C148.134 9.6 147.454 9.34667 146.894 8.84C146.361 8.30667 146.094 7.62667 146.094 6.8C146.094 5.97333 146.361 5.30667 146.894 4.8C147.454 4.26667 148.134 4 148.934 4C149.761 4 150.441 4.26667 150.974 4.8C151.508 5.30667 151.774 5.97333 151.774 6.8C151.774 7.62667 151.508 8.30667 150.974 8.84C150.441 9.34667 149.761 9.6 148.934 9.6Z" fill="black"/>
<path d="M161.649 32L155.009 12.28H159.369L164.609 28.96H165.249L170.489 12.28H174.849L168.209 32H161.649Z" fill="black"/>
<path d="M186.407 32.36C184.913 32.36 183.58 32.0267 182.407 31.36C181.233 30.6933 180.313 29.7467 179.647 28.52C178.98 27.2933 178.647 25.8267 178.647 24.12V12.28H182.767V23.84C182.767 25.5467 183.193 26.8133 184.047 27.64C184.9 28.44 186.087 28.84 187.607 28.84C189.287 28.84 190.633 28.28 191.647 27.16C192.687 26.0133 193.207 24.3733 193.207 22.24V12.28H197.327V32H193.287V29.04H192.647C192.273 29.84 191.607 30.6 190.647 31.32C189.687 32.0133 188.273 32.36 186.407 32.36Z" fill="black"/>
<path d="M211.497 32.56C208.99 32.56 206.91 32 205.257 30.88C203.604 29.76 202.59 28.0667 202.217 25.8L206.057 24.88C206.27 25.9733 206.63 26.84 207.137 27.48C207.644 28.12 208.27 28.5733 209.017 28.84C209.79 29.1067 210.617 29.24 211.497 29.24C212.804 29.24 213.804 28.9867 214.497 28.48C215.217 27.9733 215.577 27.32 215.577 26.52C215.577 25.72 215.244 25.1333 214.577 24.76C213.91 24.3867 212.924 24.08 211.617 23.84L210.257 23.6C208.924 23.36 207.71 23.0133 206.617 22.56C205.524 22.1067 204.657 21.48 204.017 20.68C203.377 19.88 203.057 18.8533 203.057 17.6C203.057 15.7333 203.75 14.2933 205.137 13.28C206.524 12.24 208.364 11.72 210.657 11.72C212.87 11.72 214.684 12.2267 216.097 13.24C217.537 14.2267 218.47 15.5733 218.897 17.28L215.057 18.36C214.817 17.16 214.31 16.32 213.537 15.84C212.764 15.3333 211.804 15.08 210.657 15.08C209.537 15.08 208.657 15.2933 208.017 15.72C207.377 16.12 207.057 16.6933 207.057 17.44C207.057 18.24 207.364 18.8267 207.977 19.2C208.617 19.5733 209.47 19.8533 210.537 20.04L211.937 20.28C213.35 20.52 214.644 20.8533 215.817 21.28C216.99 21.7067 217.91 22.32 218.577 23.12C219.27 23.92 219.617 24.9867 219.617 26.32C219.617 28.2933 218.884 29.8267 217.417 30.92C215.95 32.0133 213.977 32.56 211.497 32.56Z" fill="black"/>
<g clip-path="url(#clip0_493_2890)">
<path d="M17.9986 5.53521L35.5997 0.349609L30.464 18.0006L35.5997 35.6017L17.9986 30.466L0.347656 35.6017L5.53325 18.0006L0.347656 0.349609L17.9986 5.53521Z" fill="black"/>
</g>
<defs>
<clipPath id="clip0_493_2890">
<rect width="36" height="36" fill="white"/>
</clipPath>
</defs>
</svg>
