<svg width="601" height="515" viewBox="0 0 601 515" fill="none" xmlns="http://www.w3.org/2000/svg">
<g clip-path="url(#clip0_371_3071)">
<path d="M311.538 432.535L329.139 427.35L324.003 445.001L329.139 462.602L311.538 457.466L293.887 462.602L299.072 445.001L293.887 427.35L311.538 432.535Z" fill="black" stroke="white" stroke-miterlimit="10"/>
</g>
<g clip-path="url(#clip1_371_3071)">
<path d="M125.484 345.509L156.96 362.659L125.484 379.946L108.266 411.353L91.0468 379.946L59.5708 362.659L91.0468 345.509L108.266 313.964L125.484 345.509Z" fill="black" stroke="white" stroke-miterlimit="10"/>
</g>
<path d="M565.119 389.333C563.22 392.777 559.681 395.268 554.586 396.813C549.488 398.359 542.876 398.943 534.915 398.6C518.994 397.913 497.793 393.524 472.778 385.868C422.758 370.558 357.596 342.216 289.157 304.465C220.717 266.715 161.984 226.717 122.351 192.575C102.532 175.501 87.5099 159.909 78.4362 146.81C73.8988 140.259 70.8655 134.355 69.4536 129.218C68.0425 124.084 68.2621 119.762 70.1617 116.319C72.0613 112.875 75.5996 110.384 80.6949 108.839C85.7927 107.293 92.4048 106.709 100.366 107.052C116.287 107.739 137.488 112.128 162.503 119.784C212.523 135.094 277.685 163.436 346.124 201.187C414.564 238.937 473.297 278.934 512.93 313.077C532.749 330.15 547.771 345.742 556.845 358.842C561.382 365.393 564.415 371.297 565.827 376.434C567.238 381.568 567.019 385.889 565.119 389.333Z" stroke="black"/>
<path d="M544.889 426.007C542.989 429.451 539.451 431.942 534.356 433.487C529.258 435.033 522.646 435.617 514.684 435.273C498.764 434.587 477.562 430.198 452.548 422.542C402.528 407.232 337.366 378.89 268.926 341.139C200.487 303.388 141.754 263.391 102.121 229.249C82.3015 212.175 67.2794 196.583 58.2058 183.483C53.6684 176.933 50.635 171.029 49.2232 165.892C47.812 160.758 48.0316 156.436 49.9312 152.992C51.8308 149.549 55.3691 147.057 60.4645 145.512C65.5622 143.967 72.1743 143.383 80.1356 143.726C96.0561 144.413 117.258 148.802 142.272 156.458C192.292 171.767 257.454 200.11 325.894 237.86C394.333 275.611 453.066 315.608 492.699 349.75C512.519 366.824 527.541 382.416 536.614 395.516C541.152 402.067 544.185 407.971 545.597 413.107C547.008 418.241 546.788 422.563 544.889 426.007Z" stroke="black"/>
<path d="M524.658 462.681C522.759 466.125 519.22 468.616 514.125 470.161C509.027 471.707 502.415 472.291 494.454 471.947C478.533 471.26 457.332 466.872 432.317 459.216C382.297 443.906 317.135 415.564 248.696 377.813C180.256 340.062 121.523 300.065 81.8905 265.923C62.071 248.849 47.0489 233.257 37.9753 220.157C33.4379 213.607 30.4045 207.702 28.9927 202.566C27.5815 197.432 27.8012 193.11 29.7008 189.666C31.6003 186.222 35.1386 183.731 40.234 182.186C45.3318 180.64 51.9438 180.057 59.9051 180.4C75.8256 181.087 97.0273 185.476 122.042 193.132C172.062 208.441 237.224 236.784 305.663 274.534C374.103 312.285 432.836 352.282 472.469 386.424C492.288 403.498 507.31 419.09 516.384 432.19C520.921 438.741 523.955 444.645 525.366 449.781C526.778 454.915 526.558 459.237 524.658 462.681Z" stroke="black"/>
<circle cx="132.039" cy="104.5" r="15.5" fill="#B9FF66"/>
<circle cx="421.539" cy="435" r="10" fill="#B9FF66"/>
<circle cx="82.0391" cy="64.5" r="23.5" fill="black"/>
<path d="M306.513 383.59C300.209 385.744 293.005 381.475 290.499 374.071L251.5 259.81L274.288 252.015L313.326 366.433C315.832 373.758 312.778 381.436 306.513 383.59Z" fill="black"/>
<path d="M303.106 385C301.266 385 299.386 384.569 297.585 383.669C293.944 381.867 291.046 378.498 289.637 374.346L250.638 260.084C250.482 259.653 250.716 259.144 251.186 258.987L273.975 251.192C274.21 251.114 274.445 251.114 274.64 251.231C274.836 251.349 274.993 251.506 275.071 251.741L314.109 366.159C316.732 373.915 313.443 382.102 306.748 384.413C305.612 384.805 304.359 385 303.106 385ZM252.596 260.358L291.32 373.797C292.573 377.519 295.158 380.574 298.368 382.141C300.953 383.394 303.733 383.629 306.239 382.768C312.034 380.77 314.853 373.562 312.503 366.708L273.74 253.112L252.596 260.358Z" fill="black"/>
<path d="M270.253 153.382L196.523 205.988L167.823 235.798L156.546 255.736L156.507 255.892C154.275 259.339 155.567 267.291 159.757 275.399C163.868 283.39 169.663 288.953 173.735 289.266L173.618 289.344L195.27 291.695L235.796 285.231L321.82 254.443L428.753 272.775L429.497 272.814C402.637 267.8 366.379 231.88 340.027 181.076C313.715 130.31 305.336 80.132 316.887 55.376H316.847L270.84 152.128L270.253 153.382Z" fill="#B9FF66"/>
<path d="M447.268 270.603C473.696 256.873 468.585 194.629 435.854 131.577C403.123 68.5251 355.165 28.5417 328.738 42.2716C302.31 56.0015 307.421 118.246 340.152 181.298C372.883 244.35 420.841 284.333 447.268 270.603Z" fill="white"/>
<path d="M435.645 274.185C424.133 274.185 410.272 267.761 395.354 255.266C375.033 238.266 355.103 212.06 339.245 181.428C315.243 135.05 305.336 87.4964 314.029 60.2726C316.926 51.1849 321.782 44.8392 328.399 41.4313C341.555 34.6939 360.075 40.4129 380.593 57.5698C400.914 74.57 420.844 100.775 436.702 131.407C460.744 177.786 470.65 225.339 461.918 252.563C459.021 261.651 454.165 267.996 447.548 271.404C443.985 273.284 439.991 274.185 435.645 274.185ZM340.38 40.4129C336.347 40.4129 332.588 41.2355 329.221 42.9982C322.995 46.171 318.453 52.2033 315.713 60.8601C307.138 87.6922 317.005 134.737 340.811 180.723C373.232 243.279 420.766 283.312 446.804 269.955C453.03 266.782 457.572 260.75 460.313 252.093C468.888 225.261 459.021 178.216 435.214 132.23C406.983 77.782 367.358 40.4129 340.38 40.4129Z" fill="black"/>
<path d="M435.645 274.186C424.133 274.186 410.272 267.762 395.354 255.266C375.033 238.266 355.103 212.061 339.245 181.429C315.243 135.05 305.336 87.4968 314.029 60.273C316.926 51.1853 321.782 44.8396 328.399 41.4317C337.209 36.8879 348.72 38.0238 361.681 44.6829C374.093 51.0678 387.523 62.3882 400.601 77.3907C400.914 77.7432 400.875 78.2916 400.523 78.605C400.17 78.9184 399.622 78.8792 399.309 78.5266C372.762 48.0516 345.901 34.4201 329.221 42.9986C322.995 46.1714 318.453 52.2037 315.713 60.8605C307.138 87.6927 317.005 134.737 340.811 180.724C369.003 235.132 408.667 272.541 435.606 272.541C439.639 272.541 443.398 271.718 446.765 269.955C452.991 266.782 457.533 260.75 460.274 252.093C468.849 225.261 458.982 178.217 435.175 132.23C428.088 118.52 420.1 105.633 411.525 93.9208C411.251 93.5291 411.33 92.9807 411.721 92.7065C412.113 92.4323 412.661 92.5107 412.935 92.9024C421.588 104.693 429.576 117.658 436.741 131.447C460.744 177.786 470.65 225.339 461.918 252.563C459.021 261.651 454.165 267.997 447.548 271.405C443.985 273.285 439.991 274.186 435.645 274.186Z" fill="black"/>
<path d="M387.305 190.339C393.428 187.159 392.25 172.751 384.675 158.159C377.1 143.567 365.997 134.317 359.874 137.498C353.752 140.678 354.93 155.086 362.505 169.678C370.079 184.269 381.183 193.52 387.305 190.339Z" fill="#B9FF66"/>
<path d="M384.624 191.848C377.889 191.848 368.492 183.152 361.718 170.03C356.08 159.141 353.77 147.938 355.845 141.474C356.589 139.203 357.803 137.597 359.486 136.735C366.143 133.327 377.537 142.61 385.446 157.848C391.085 168.737 393.395 179.94 391.32 186.404C390.576 188.676 389.362 190.282 387.678 191.143C386.738 191.613 385.72 191.848 384.624 191.848ZM362.54 137.714C361.718 137.714 360.935 137.871 360.269 138.223C358.977 138.889 358.038 140.143 357.45 141.984C355.532 148.016 357.764 158.749 363.206 169.247C370.411 183.152 381.257 192.514 386.856 189.616C388.148 188.95 389.088 187.696 389.675 185.855C391.594 179.784 389.323 169.09 383.919 158.592C377.576 146.41 368.492 137.714 362.54 137.714Z" fill="#B9FF66"/>
<path d="M429.694 259.575C419.592 259.575 407.454 253.934 394.376 243.005C376.599 228.12 359.136 205.166 345.275 178.373C324.249 137.792 315.595 96.1535 323.191 72.2983C325.737 64.3074 330.004 58.7452 335.839 55.729C349.23 48.8741 368.925 56.7866 389.912 77.4297C390.264 77.7823 390.264 78.2915 389.912 78.644C389.56 78.9966 389.051 78.9966 388.698 78.644C368.259 58.5493 349.269 50.7151 336.622 57.2567C331.218 60.0378 327.264 65.2475 324.836 72.8075C317.357 96.2318 325.971 137.361 346.802 177.59C371.431 225.183 406.083 257.851 429.655 257.851C433.179 257.851 436.428 257.107 439.404 255.619C444.808 252.837 448.762 247.628 451.19 240.068C458.669 216.643 450.054 175.514 429.224 135.285C422.92 123.142 415.872 111.744 408.276 101.442C408.002 101.05 408.08 100.501 408.472 100.227C408.863 99.953 409.411 100.031 409.685 100.423C417.36 110.843 424.447 122.281 430.79 134.502C451.816 175.083 460.47 216.722 452.874 240.577C450.329 248.568 446.061 254.13 440.226 257.146C437.016 258.752 433.492 259.575 429.694 259.575Z" fill="black"/>
<path d="M195.308 292.517C195.269 292.517 195.23 292.517 195.23 292.517L173.577 290.167C173.46 290.167 173.342 290.128 173.225 290.05C168.761 289.344 163.123 283.704 159.011 275.791C154.626 267.448 153.334 259.3 155.722 255.462L155.762 255.344L167.038 235.367C167.077 235.289 167.117 235.249 167.156 235.21L195.857 205.401C195.896 205.362 195.935 205.323 195.974 205.284L269.508 152.794L316.024 54.9845C316.141 54.7886 316.298 54.632 316.533 54.5536C316.768 54.4753 317.003 54.4753 317.199 54.5928C317.629 54.7886 317.825 55.2979 317.629 55.7288C305.844 80.994 315.163 131.211 340.77 180.645C366.417 230.157 402.165 266.821 429.692 271.874C430.122 271.953 430.436 272.344 430.396 272.814C430.357 273.245 429.966 273.559 429.535 273.598L428.791 273.559C428.752 273.559 428.713 273.559 428.674 273.559L321.936 255.266L236.108 285.976C236.069 285.976 235.991 286.015 235.951 286.015L195.426 292.478C195.387 292.517 195.348 292.517 195.308 292.517ZM174.204 288.522L195.308 290.794L235.638 284.331L321.623 253.581C321.78 253.542 321.897 253.503 322.054 253.542L418.141 269.994C392.181 258.595 361.836 224.947 339.321 181.468C316.964 138.301 306.979 94.4689 312.461 66.775L271.035 153.735C270.956 153.852 270.878 153.97 270.761 154.048L197.11 206.655L168.526 236.307L157.249 256.284C157.249 256.323 157.21 256.363 157.21 256.363C155.174 259.535 156.545 267.37 160.499 275.008C164.376 282.49 169.975 288.13 173.812 288.404C173.969 288.404 174.086 288.444 174.204 288.522Z" fill="black"/>
<path d="M270.369 153.069L316.847 55.3369H316.886C305.335 80.093 313.753 130.271 340.027 181.037C366.378 231.881 402.636 267.8 429.575 272.736L428.831 272.697L322.054 254.404L319.587 253.973C307.175 251.779 290.613 235.641 278.749 212.608C266.571 188.988 264.418 165.447 269.821 154.244L270.369 153.069Z" fill="white"/>
<path d="M429.575 273.598C429.536 273.598 429.575 273.598 429.575 273.598L428.792 273.558C428.753 273.558 428.713 273.558 428.674 273.558L321.898 255.266L319.431 254.835C306.314 252.524 289.673 235.719 277.966 213.039C264.692 187.265 264.026 164.311 269.038 153.891L269.626 152.716L316.103 55.0236C316.22 54.8277 316.377 54.671 316.612 54.5927C316.847 54.5143 317.082 54.5143 317.278 54.6319C317.708 54.8277 317.904 55.3369 317.708 55.7678C305.923 81.0331 315.242 131.25 340.849 180.684C366.496 230.196 402.245 266.86 429.771 271.913C430.201 271.992 430.515 272.383 430.475 272.853C430.358 273.245 430.006 273.598 429.575 273.598ZM312.383 66.7749L271.153 153.46L270.565 154.635C265.593 164.977 267.041 188.087 279.493 212.217C290.965 234.466 307.136 250.918 319.744 253.111L322.211 253.542L418.102 269.994C392.142 258.595 361.797 224.947 339.283 181.467C316.925 138.301 306.941 94.4687 312.383 66.7749Z" fill="black"/>
<path d="M194.135 292.4C194.096 292.4 194.057 292.4 194.057 292.4L173.54 290.206C173.422 290.206 173.305 290.167 173.187 290.089C168.723 289.384 163.085 283.743 158.974 275.831C154.628 267.448 153.335 259.3 155.724 255.462L155.763 255.344L167.04 235.367C167.275 234.936 167.784 234.819 168.214 235.054C168.645 235.289 168.763 235.798 168.528 236.229L157.251 256.284C157.251 256.323 157.212 256.363 157.212 256.363C155.176 259.535 156.546 267.37 160.501 275.008C164.377 282.49 169.976 288.13 173.814 288.404C173.931 288.404 174.088 288.444 174.166 288.522L194.213 290.676C194.683 290.716 195.036 291.146 194.957 291.616C194.918 292.047 194.566 292.4 194.135 292.4Z" fill="black"/>
<path d="M195.505 291.538C188.849 291.068 179.53 281.628 172.756 268.584C165.591 254.757 163.907 240.459 168.292 235.367L156.585 255.736L156.507 255.893C154.275 259.34 155.567 267.292 159.757 275.4C163.868 283.391 169.663 288.953 173.735 289.266L173.618 289.345L195.505 291.538Z" fill="white"/>
<path d="M195.506 292.4C195.466 292.4 195.466 292.4 195.427 292.4C195.271 292.4 195.075 292.361 194.918 292.361L173.54 290.206C173.422 290.206 173.305 290.167 173.187 290.089C168.723 289.384 163.085 283.743 158.974 275.831C154.628 267.448 153.335 259.301 155.724 255.462L155.763 255.344L166.061 237.404C166.452 236.386 166.961 235.485 167.588 234.74C167.862 234.388 168.371 234.349 168.723 234.584C169.076 234.858 169.193 235.328 168.958 235.72L167.51 238.187C165.199 244.416 167.47 256.637 173.422 268.075C179.883 280.57 188.693 289.697 194.997 290.52L195.466 290.559C195.936 290.598 196.289 291.029 196.25 291.499C196.289 292.048 195.936 292.4 195.506 292.4ZM174.166 288.522L189.123 290.05C183.367 286.368 177.024 278.769 171.973 268.976C167.079 259.536 164.651 249.743 165.043 242.692L157.251 256.284C157.251 256.324 157.212 256.363 157.212 256.363C155.176 259.536 156.546 267.37 160.501 275.008C164.377 282.49 169.976 288.13 173.814 288.405C173.931 288.405 174.088 288.444 174.166 288.522Z" fill="black"/>
<path d="M234.349 285.388L236.072 285.035C226.753 286.994 212.03 272.892 201.654 252.876C191.043 232.429 189.046 212.021 196.564 205.988L195.585 206.968L168.372 235.249C163.909 240.263 165.553 254.639 172.758 268.544C179.688 281.941 189.516 291.499 196.212 291.459L234.349 285.388Z" fill="black"/>
<path d="M196.173 292.361C189.047 292.361 179.141 282.764 171.975 268.976C164.693 254.874 162.852 240.146 167.707 234.701L194.411 206.968C194.881 206.341 195.429 205.793 196.017 205.323C196.369 205.049 196.878 205.088 197.191 205.401C197.505 205.754 197.505 206.263 197.191 206.576L195.664 208.182C190.222 215.468 192.923 234.114 202.438 252.485C212.697 272.305 227.028 285.898 235.798 284.253L235.916 284.213C236.386 284.135 236.816 284.409 236.934 284.879C237.012 285.349 236.738 285.78 236.268 285.898C236.229 285.898 236.19 285.898 236.151 285.937L234.545 286.25H234.506L196.369 292.322C196.291 292.322 196.212 292.361 196.173 292.361ZM192.14 211.825L169 235.876C164.693 240.734 166.65 254.913 173.542 268.192C180.276 281.197 189.791 290.598 196.173 290.637L229.847 285.271C220.763 282.059 209.564 269.955 200.911 253.307C192.689 237.443 189.517 221.305 192.14 211.825Z" fill="black"/>
<path d="M359.878 137.479C353.731 140.612 354.631 155.145 362.462 169.638C375.579 193.885 386.034 191.025 387.248 190.594C387.287 190.594 387.287 190.634 387.248 190.634L364.733 208.77C358.116 199.486 351.812 189.145 346.017 177.981C340.496 167.288 335.837 156.633 332.156 146.292L359.878 137.479Z" fill="black"/>
<path d="M364.735 209.632C364.696 209.632 364.657 209.632 364.618 209.632C364.383 209.593 364.187 209.475 364.03 209.279C357.256 199.761 350.953 189.341 345.275 178.413C339.832 167.915 335.134 157.221 331.375 146.645C331.297 146.41 331.297 146.175 331.414 145.979C331.532 145.783 331.688 145.627 331.923 145.548L359.645 136.735C360.076 136.617 360.546 136.813 360.702 137.244C360.859 137.675 360.702 138.145 360.311 138.341C358.979 139.007 358 140.338 357.413 142.297C355.495 148.447 357.844 159.336 363.286 169.325C376.09 192.984 385.957 190.281 387.014 189.89C387.406 189.733 387.876 189.929 388.072 190.281C388.267 190.634 388.189 191.143 387.876 191.417L365.283 209.436C365.127 209.554 364.931 209.632 364.735 209.632ZM333.293 146.841C337.013 157.065 341.555 167.406 346.802 177.59C352.284 188.166 358.392 198.233 364.931 207.517L384.469 191.77C380.006 191.574 371.587 188.245 361.72 170.03C356.004 159.493 353.654 148.369 355.729 141.67C356.004 140.809 356.317 140.064 356.708 139.359L333.293 146.841Z" fill="black"/>
<path d="M475.727 81.5974C493.627 72.1937 500.551 50.1159 491.191 32.2852C481.831 14.4545 459.733 7.62311 441.833 17.0268C423.933 26.4305 417.009 48.5083 426.369 66.339C435.729 84.1697 457.827 91.0011 475.727 81.5974Z" fill="black"/>
<path d="M442.106 41.2357C443.829 38.8854 446.374 37.4361 449.272 37.1227C451.464 36.8877 453.5 37.3578 455.419 38.5329C456.398 39.1205 457.259 39.8647 458.082 40.7656C458.669 39.708 459.374 38.7679 460.196 37.9845C461.801 36.4177 463.72 35.5167 465.873 35.2817C468.771 34.9683 471.59 35.8301 473.783 37.7495C475.936 39.6297 477.307 42.3717 477.659 45.4662C478.012 48.639 477.15 51.6943 474.957 55.063C473 58.0792 470.024 61.2129 466.578 64.895C465.404 66.1484 464.072 67.5586 462.702 69.0471C462.35 69.4388 461.841 69.713 461.292 69.7522C460.744 69.8305 460.235 69.6738 459.765 69.3605C458.082 68.1853 456.476 67.0885 455.067 66.1484C450.916 63.3281 447.314 60.8995 444.73 58.3926C441.832 55.6114 440.344 52.7911 439.992 49.6183C439.679 46.5238 440.423 43.5468 442.106 41.2357Z" fill="white"/>
<path d="M577.276 83.5915C590.38 70.4819 590.38 49.2271 577.276 36.1175C564.172 23.0079 542.926 23.0079 529.821 36.1175C516.717 49.2271 516.717 70.4819 529.821 83.5915C542.926 96.7011 564.172 96.7011 577.276 83.5915Z" fill="#B9FF66"/>
<path d="M553.542 94.2727C534.591 94.2727 519.125 78.8394 519.125 59.8414C519.125 40.8827 534.552 25.4102 553.542 25.4102C572.533 25.4102 587.96 40.8435 587.96 59.8414C587.96 78.8002 572.533 94.2727 553.542 94.2727ZM553.542 27.1337C535.531 27.1337 520.848 41.7836 520.848 59.8414C520.848 77.8601 535.492 92.5492 553.542 92.5492C571.554 92.5492 586.237 77.8993 586.237 59.8414C586.237 41.8228 571.593 27.1337 553.542 27.1337Z" fill="#B9FF66"/>
<path d="M562.628 63.1703C560.749 63.1703 559.104 64.0713 558.008 65.4814L546.692 61.0551C546.692 60.8984 546.731 60.7809 546.731 60.6242C546.731 60.35 546.692 60.0758 546.653 59.8016L558.243 54.4352C559.3 55.6495 560.866 56.4329 562.628 56.4721C565.839 56.4721 568.501 53.8476 568.501 50.5965C568.501 47.3453 565.878 44.6816 562.628 44.6816C559.417 44.6816 556.755 47.3061 556.755 50.5573C556.755 50.8315 556.794 51.1057 556.833 51.3799L545.243 56.7463C544.186 55.532 542.62 54.7486 540.858 54.7094C537.647 54.7094 534.984 57.3339 534.984 60.5851C534.984 63.8363 537.608 66.4999 540.858 66.4999C542.737 66.4999 544.382 65.5989 545.478 64.1888L556.794 68.6151C556.794 68.7718 556.755 68.8893 556.755 69.046C556.755 72.2972 559.378 74.9608 562.628 74.9608C565.839 74.9608 568.501 72.3364 568.501 69.0852C568.462 65.834 565.839 63.2095 562.628 63.1703Z" fill="black"/>
<path d="M563.069 189.992C578.435 179.321 582.296 158.282 571.692 142.998C561.087 127.714 540.034 123.974 524.667 134.644C509.301 145.314 505.44 166.354 516.044 181.638C526.649 196.922 547.702 200.662 563.069 189.992Z" fill="black"/>
<path d="M535.415 178.372L530.482 151.619C530.247 150.248 531.5 149.112 532.831 149.464L562.002 157.729C563.49 158.16 563.842 160.08 562.628 161.02L538.352 179.508C537.295 180.37 535.689 179.783 535.415 178.372Z" fill="white"/>
<path d="M543.537 299.581C562.514 290.339 570.454 267.552 561.273 248.685C552.092 229.818 529.266 222.015 510.289 231.257C491.313 240.498 483.373 263.285 492.554 282.152C501.735 301.019 524.561 308.822 543.537 299.581Z" fill="#B9FF66"/>
<path d="M526.718 304.346C522.646 304.346 518.495 303.719 514.462 302.348C504.595 299.058 496.607 292.164 491.987 282.841C487.367 273.558 486.662 263.021 489.99 253.15C496.881 232.82 519.043 221.734 539.443 228.511C549.31 231.801 557.298 238.695 561.918 248.018C566.539 257.302 567.243 267.839 563.915 277.71C558.355 294.005 543.045 304.346 526.718 304.346ZM527.109 228.276C511.486 228.276 496.842 238.147 491.556 253.737C488.385 263.177 489.05 273.244 493.475 282.097C497.899 290.989 505.535 297.609 514.971 300.742C534.47 307.205 555.653 296.629 562.232 277.201C565.403 267.76 564.737 257.693 560.313 248.841C555.888 239.949 548.253 233.329 538.817 230.195C534.94 228.864 530.986 228.276 527.109 228.276Z" fill="black"/>
<path d="M546.375 259.261C545.983 268.779 529.891 291.028 526.053 296.238C525.662 296.787 524.84 296.747 524.487 296.16C522.06 292.243 514.033 279.081 509.843 268.427C508.16 264.196 507.102 260.358 507.22 257.655C507.651 246.844 516.774 238.422 527.581 238.853C538.387 239.362 546.806 248.45 546.375 259.261Z" fill="black"/>
<path d="M533.13 264.826C536.632 261.323 536.632 255.644 533.13 252.141C529.628 248.638 523.951 248.638 520.45 252.141C516.948 255.644 516.948 261.323 520.45 264.826C523.951 268.329 529.628 268.329 533.13 264.826Z" fill="#B9FF66"/>
<defs>
<clipPath id="clip0_371_3071">
<rect width="36" height="36" fill="white" transform="translate(293.539 427)"/>
</clipPath>
<clipPath id="clip1_371_3071">
<rect width="70.3259" height="70.3259" fill="white" transform="translate(108.266 313) rotate(45)"/>
</clipPath>
</defs>
</svg>
